#!OML:ASF F:\VICON\USERDATA\INSTALL\rory3\rory3.ASF
:FULLY-SPECIFIED
:DEGREES
209
root 1.25822 27.7067 1.43445 2.18064 -2.53805 -2.25182
lowerback 8.02593 -0.637617 1.87645
upperback -1.05794 -0.614819 0.875253
thorax -5.6205 -0.347889 -0.0647234
lowerneck -12.5638 -0.615918 -5.33145
upperneck 2.83696 -0.403471 6.49244
head 2.89515 0.0157981 2.81723
rclavicle -5.00999e-015 9.0944e-015
rhumerus -1.8184 9.41771 -67.6592
rradius 45.429
rwrist 8.50237
rhand -31.8646 1.02737
rfingers 7.12502
rthumb -5.11799 -28.8908
lclavicle -5.00999e-015 9.0944e-015
lhumerus -9.69316 -8.31692 69.7876
lradius 60.522
lwrist 7.78161
lhand -26.0896 18.0685
lfingers 7.12502
lthumb 0.459185 48.0477
rfemur -6.51722 13.9389 24.4604
rtibia 23.4153
rfoot 27.6217 -15.7826
rtoes 2.54376
lfemur -7.68283 -3.35054 -19.2246
ltibia 20.9725
lfoot 23.0867 16.2857
ltoes 2.24601
210
root 1.25699 27.8182 1.45544 1.64498 -2.43949 -1.59859
lowerback 8.46736 -0.601639 1.15907
upperback -0.884756 -0.642545 0.695322
thorax -5.6826 -0.341481 0.158001
lowerneck -12.3258 -0.779935 -5.25941
upperneck 2.83645 -0.635121 6.2234
head 3.20624 -0.128134 3.00788
rclavicle -8.64092e-015 -1.92076e-014
rhumerus -2.76762 9.245 -67.9883
rradius 44.0722
rwrist 8.35947
rhand -31.6244 0.752656
rfingers 7.12502
rthumb -4.8861 -29.171
lclavicle -8.64092e-015 -1.92076e-014
lhumerus -10.2633 -8.58882 69.8551
lradius 59.0848
lwrist 7.66216
lhand -24.8192 17.948
lfingers 7.12502
lthumb 1.68622 47.9211
rfemur -6.44999 14.0034 23.8385
rtibia 24.1378
rfoot 27.3487 -16.0501
rtoes 1.78619
lfemur -7.26774 -3.52431 -19.8841
ltibia 20.5558
lfoot 22.9541 15.8699
ltoes 2.25836
211
root 1.26079 27.9171 1.48221 1.16101 -2.39881 -0.79612
lowerback 8.80237 -0.53782 0.355679
upperback -0.746158 -0.652309 0.463677
thorax -5.72003 -0.324822 0.372218
lowerneck -12.166 -0.879873 -5.16562
upperneck 3.42924 -0.814865 6.38132
head 3.03433 -0.194528 2.73219
rclavicle 9.58515e-015 -7.10655e-015
rhumerus -3.6344 9.14042 -68.281
rradius 42.6571
rwrist 8.30548
rhand -31.4739 0.348279
rfingers 7.12502
rthumb -4.74071 -29.5787
lclavicle 9.58515e-015 -7.10655e-015
lhumerus -10.7362 -8.80713 69.9356
lradius 57.5914
lwrist 7.45371
lhand -23.8494 17.9489
lfingers 7.12502
lthumb 2.62279 47.9125
rfemur -6.4264 14.0166 23.0178
rtibia 24.8535
rfoot 27.0682 -16.176
rtoes 2.12414
lfemur -6.74923 -3.62235 -20.7259
ltibia 19.9307
lfoot 23.0262 15.5795
ltoes 2.04617
212
root 1.26924 28.005 1.50556 1.01285 -2.32333 -0.124916
lowerback 8.85733 -0.493353 -0.270684
upperback -0.708491 -0.670355 0.283578
thorax -5.70639 -0.317329 0.539543
lowerneck -12.0912 -1.01025 -5.42395
upperneck 3.82783 -0.985514 6.61775
head 3.1561 -0.271771 2.83786
rclavicle 3.79865e-015 1.18774e-014
rhumerus -4.47238 8.84782 -68.6134
rradius 41.1973
rwrist 8.4508
rhand -31.2575 0.213662
rfingers 7.12502
rthumb -4.53178 -29.7179
lclavicle 3.79865e-015 1.18774e-014
lhumerus -11.1586 -9.02976 70.0318
lradius 56.1
lwrist 7.20877
lhand -23.5534 18.1559
lfingers 7.12502
lthumb 2.90868 48.1158
rfemur -6.80296 14.0463 22.2488
rtibia 25.5107
rfoot 26.7954 -16.0899
rtoes 2.3176
lfemur -6.54697 -3.76429 -21.4122
ltibia 19.2293
lfoot 23.1392 15.5378
ltoes 1.57188
213
root 1.27635 28.0807 1.53035 0.991983 -2.16521 0.342383
lowerback 8.83732 -0.466586 -0.70191
upperback -0.728537 -0.686556 0.184115
thorax -5.71223 -0.313558 0.68056
lowerneck -12.1086 -1.14095 -5.68713
upperneck 4.19094 -1.14921 6.8215
head 3.28205 -0.345848 2.93471
rclavicle 2.64943e-015 9.74045e-015
rhumerus -5.37478 8.38138 -68.9442
rradius 39.7329
rwrist 8.74519
rhand -31.0865 0.302274
rfingers 7.12502
rthumb -4.36667 -29.6327
lclavicle 2.64943e-015 9.74045e-015
lhumerus -11.5337 -9.23623 70.1924
lradius 54.6335
lwrist 6.99426
lhand -23.5457 17.9636
lfingers 7.12502
lthumb 2.9161 47.9234
rfemur -7.25828 14.1272 21.6837
rtibia 26.0345
rfoot 26.3441 -16.0781
rtoes 2.51311
lfemur -6.53373 -3.86647 -21.834
ltibia 18.6031
lfoot 23.1563 15.5603
ltoes 1.12939
214
root 1.2825 28.144 1.56226 0.974126 -1.90236 0.842289
lowerback 8.70927 -0.46883 -1.16765
upperback -0.743925 -0.743711 0.0823556
thorax -5.65066 -0.329404 0.842808
lowerneck -11.8961 -1.21424 -5.82276
upperneck 4.26312 -1.24449 6.88751
head 3.27724 -0.395672 2.97123
rclavicle -1.02902e-014 -1.963e-014
rhumerus -6.30625 8.02867 -69.2377
rradius 38.3669
rwrist 8.95685
rhand -30.808 0.290158
rfingers 7.12502
rthumb -4.09774 -29.6502
lclavicle -1.02902e-014 -1.963e-014
lhumerus -11.9156 -9.57983 70.3393
lradius 53.341
lwrist 7.04989
lhand -23.5919 17.7828
lfingers 7.12502
lthumb 2.87144 47.7432
rfemur -7.58943 14.2076 21.08
rtibia 26.3926
rfoot 25.7915 -16.1071
rtoes 2.77679
lfemur -6.565 -3.82338 -22.2888
ltibia 18.1268
lfoot 23.2087 15.2245
ltoes 0.396835
215
root 1.28875 28.1957 1.60095 0.972224 -1.7336 1.11682
lowerback 8.42717 -0.459476 -1.38854
upperback -0.702418 -0.752672 0.0306325
thorax -5.4452 -0.329917 0.910685
lowerneck -11.6005 -1.26312 -5.87065
upperneck 4.14629 -1.30869 6.84418
head 3.1984 -0.435938 2.96105
rclavicle -1.62817e-014 -6.85807e-015
rhumerus -7.12291 7.60429 -69.5331
rradius 37.054
rwrist 9.17943
rhand -30.4255 0.148238
rfingers 7.12502
rthumb -3.72832 -29.7989
lclavicle -1.62817e-014 -6.85807e-015
lhumerus -12.3008 -9.79293 70.4838
lradius 52.3309
lwrist 7.20561
lhand -23.6841 17.9381
lfingers 7.12502
lthumb 2.78246 47.8997
rfemur -7.7966 14.4628 20.7161
rtibia 26.575
rfoot 25.2946 -16.1569
rtoes 2.82649
lfemur -6.60979 -3.55222 -22.5039
ltibia 17.8481
lfoot 23.212 14.7674
ltoes 0.22964
